<?xml version="1.0" encoding="utf-8"?>
<!-- Generator: Adobe Illustrator 24.1.2, SVG Export Plug-In . SVG Version: 6.00 Build 0)  -->
<svg version="1.1" id="Layer_1" xmlns="http://www.w3.org/2000/svg" xmlns:xlink="http://www.w3.org/1999/xlink" x="0px" y="0px"
	 viewBox="0 0 1000 1000" style="enable-background:new 0 0 1000 1000;" xml:space="preserve">
<style type="text/css">
	.st0{fill:#9F7E69;}
</style>
<path class="st0" d="M764.7,97.5c-1.3-2.4-3.6-4-6.5-3.4c-3.2,0.7-3.5,3.4-3.4,6.6c0.4,2.1,0.8,3.9,1.3,5.6c2.8,9.5,6,18.9,5.5,29
	c-0.2,5.9-2.3,11.1-6,15.6c-1.1,1.4-2.6,2.7-4.6,1.9c-1.8-0.7-1.7-2.7-1.6-4.2c0.2-2.6,0.4-5.2,0.8-7.7c1.8-11,2.5-22-0.7-32.8
	c-0.9-3.2-2.6-6-6.5-5c-3.7,0.9-3.7,4-3.3,7.1c0.5,3.4,0.7,6.8-0.1,10.2c-0.5,2.1-0.9,5.1-3.7,5.1c-2.4,0-2.5-2.7-3.1-4.5
	c-3.5-10.6-8.4-20.4-15.2-29.3c-1.7-2.2-3.3-4.5-5.7-5.9s-5-1.8-7.3,0.1c-2.2,1.9-1.9,4.3-0.7,6.7c0.8,1.6,1.6,3.2,2.6,4.7
	c3.9,6.4,8,12.7,10.9,19.6c0.8,2,2.1,4.1,0.6,6.4c-2.6-0.4-4-2.3-5.4-4c-2.3-2.7-4.5-5.5-6.9-8.2c-2.2-2.5-4.9-4.4-8.1-2.4
	c-3.6,2.2-2.6,5.6-1.2,8.7c0.9,2.1,2,4.1,3.4,5.9c2.7,3.7,5.5,7.3,8.5,10.7c7.3,8.5,13.5,17.5,14.9,29.1c1.2,9.4-1.1,18.1-5.7,26.2
	c-0.8,1.3-1.8,3-3.7,2.6c-1.6-0.3-2-2-2.5-3.4c-0.3-0.9-0.5-1.9-0.8-2.8c-2.4-10.1-5.5-20.1-9.7-29.6c-1.4-3.3-3.6-6.3-7.8-4.9
	c-4.2,1.4-3.9,5.2-3.1,8.6c2.1,9.7,4.5,19.3,6,29.1c2.6,17.2-5.4,35.2-20.4,44.4c-1.9,1.2-3.8,2.9-6.2,1.3c-2.3-1.6-1.8-4.1-1.4-6.3
	c2.3-11.1,1.7-22.3,0.4-33.5c-0.4-3.5-1.2-7.1-2.2-10.4c-0.8-2.5-2.8-4.1-5.7-3.6c-2.6,0.4-3.7,2.5-4.1,4.9
	c-0.2,1.3-0.1,2.6-0.1,3.9c0,9.4,0.3,18.9-0.9,28.3c-1,7.8-2.2,15.5-6.2,22.4c-2.4,4.1-5.5,7.4-10.8,6.9c-4.9-0.5-6.7-4.2-8.2-8
	c-5.6-14.4-4.5-28.6,1.3-42.7c1.3-3.1,2.6-6.5-1.2-8.6c-3.6-2-6.1,0.4-8.2,3.2c-6.8,9.3-8.8,20.1-9.6,31.2
	c-0.9,11.6,2,22.6,5.2,33.5c1.6,5.6,3.4,11.2,1.5,17.2c-1.3,4.1-4.1,5.5-8.2,5.4c-3.7-0.1-7.5,0.6-8.9-4.6
	c-3.6-13.8-11.8-24.9-21-35.3c-21.7-24.3-23.9-65.2,7.2-87.2c6.4-4.5,11.9-10.1,17.2-15.9c7.3-8,13.5-16.7,18.2-26.4
	c1.4-2.8,1.1-5.5-1.4-7.4c-2.6-1.9-5.3-1.4-7.5,0.7c-1.5,1.4-3,3-4.2,4.7c-5.5,7.5-11,15-17.6,21.5c-3.3,3.2-6.7,6.2-10.9,8.1
	c-4,1.8-5.8,0.5-6-3.8c-0.2-4.4,1.4-8.3,3.2-12.2c3-6.3,6.3-12.5,9.5-18.7c1.3-2.6,0.9-4.8-1.1-6.6c-2.2-2-4.5-1.3-6.6,0.3
	c-1.7,1.3-3,2.9-4.3,4.7c-6.2,8.9-10.4,18.7-14,28.9c-0.8,2.1-1.1,5.6-4.1,5.2c-3-0.5-3.8-3.7-4-6.6c-0.1-2.6,0-5.2,0.4-7.8
	c1.1-6.3,3.6-12.1,6-18c1.2-3.1,2.6-6.5-1.1-8.7c-4-2.3-6.6,0.7-8.4,3.5c-8.2,13-12.9,26.9-10.6,42.5c1.6,10.9,5.6,21.4,6.7,32.4
	c0.7,8,1.1,15.9-0.7,23.8c-1.7,7.9-6.7,10.5-14.1,7.3c-8.7-3.6-15.4-9.6-19.6-18.2c-5.6-11.4-6.8-23.6-6.1-36.1
	c0.2-3.4,0-6.9-4.1-7.7s-5.9,2.3-6.6,5.7c-3.6,17.1-3.8,33.8,5.1,49.7c6.6,11.8,16.6,19.3,29.2,23.8c8.2,3,15.5,7.6,22,13.4
	c1.2,1,2.6,2.3,2,4.1c-0.7,2.1-2.8,2-4.5,2.2c-0.8,0.1-1.6-0.1-2.4-0.2c-15.6-1.5-28.1-8.5-37.8-20.7c-2-2.5-4.5-5.4-8.2-3.1
	c-3.7,2.3-2.6,6-1.3,9.2c2.8,6.7,7.3,12.3,12.9,16.9c10.2,8.4,22.4,11.6,35,13.6c7.1,1.1,14.1,2.4,20.2,6.7c2.5,1.8,4.4,4,5,7.9
	c-8.5-2.9-16.4-5.4-24.8-5.8c-8.3-0.4-10.6,2-8.6,9.9c2.8,10.6,7.9,20,15.6,27.7c3.3,3.4,3.7,6.5,1.6,10.4
	c-2.3,4.3-4.9,8.4-8.2,12.1c-9.3,10.6-21.3,17.5-33.2,24.6c-10,6-10.9,22.9-1.5,30.1c1.9,1.4,3.4,2.9,3.9,5.3
	c1.2,5.4,5.1,8.1,10,9.7c5.5,1.8,11.1,2,16.8,0.6c7.4-1.9,14.9-3,22.7-2.5c13.4,0.9,19.5,8.7,16.9,22c-2,10.7-5.3,21.1-6.3,32
	c-0.2,2.1-1.5,3.5-2.8,5c-7.7,8.9-18.2,12.9-28.8,16.5c-15.4,5.3-31.4,7.8-47.7,9.2c-25.4,2.2-50.7,0.7-76-1.6
	c-18.1-1.7-36.3-2.8-54.5-0.7c-38.4,4.5-69.1,22.8-93.1,52.5c-11.9,14.7-15,31.5-7.8,49.5c1.8,4.4,3.3,6.3,5.6,6.1
	c2.8-0.1,5.1-7.4,5.1-16.5c1.1,0,1.9,8,1.9,17.9c2.9,17.3,6.3,34.5,8.5,51.9c2.3,17.5-0.4,34.3-10.1,49.6
	c-7.5,11.8-17.1,21.3-28.7,28.8c-4.8,3.1-7.2,7-6.8,13c0.4,6.5,1.4,12.9,1,19.5c-1.4,19.6-3.2,39.2-6,58.6
	c-3.5,24.4-6.9,48.8-13,72.8c-1.6,6.4-1.4,12.3,5.3,16.1c2.8,1.6,3.2,4.8,3.9,7.6c0.7,2.7,1.2,5.4,1.6,8.1c0.6,3.7,2.6,5.1,6.4,5
	c9.9-0.3,19.8-0.5,29.8,0.2c5,0.4,5.8-1,3.7-5.7c-2.8-6.4-6.2-12.5-10.7-18c-4.6-5.7-8-12-8.4-19.4c-0.5-7.1,0-14.3,0.6-21.4
	c2.2-27.6,7.2-54.7,14-81.5c3.5-13.7,9.1-26.2,20.8-34.9c4.4-3.3,8.8-6.7,13.3-9.9c22.3-15.3,43.1-32.1,58.2-54.9
	c0.6-0.9,1.1-2,2.5-2.2c3.5-0.4,10.1,4.7,10.8,8.4c1.2,6,0.7,12-1.1,17.8c-4.2,13.6-13.1,23.8-23.7,32.8c-5.7,4.8-7.2,9.8-4,16
	c8,15.5,14.2,31.8,19.6,48.3c9.7,29.6,19.5,59.3,23,90.5c0.7,6.3,3.4,10.6,9.5,12.7c4.9,1.7,7.6,5.3,8.5,10.4
	c0.3,1.8,0.9,3.5,1.2,5.2c0.6,3.8,2.5,5.4,6.6,5.4c9.9-0.1,19.9-0.5,29.8,0.5c1.7,0.2,3.6,0.4,5.2-1.3c-0.1-0.7,0-1.5-0.3-2.2
	c-4.1-9.6-9.7-18-18-24.5c-6-4.6-10.3-10.4-12.9-17.4c-11.7-31.9-22.8-64-29.5-97.4c-2.2-11.1-1.6-22.5,6.8-31.7
	c4.5-5,9.9-9,15.3-12.9c18.3-13.3,35.3-28.1,46.6-47.9c4.7-8.2,10.1-10.2,18.7-9.4c16.6,1.4,33.1,0.2,49.5-2.7
	c3-0.5,4.3,0.7,4.9,3.2c0.8,3.3,1.5,6.7,2.1,10c5.6,28,13.8,55.5,18.7,83.7c2.5,14.3,7.6,28.1,7.7,43c0.1,26,1.6,52-3.1,77.8
	c-0.5,2.7-0.6,5.5,1.5,7.3c5.3,4.8,6.3,11.1,6.9,17.6c0.3,2.9,1.8,4.2,4.8,4.3c9.8,0.1,19.5,0.4,29.3,0.5c4.6,0,5.4-1.2,3.8-5.8
	c-2.3-6.3-5.3-12.2-8.9-17.9c-4.5-7-7.6-14.6-9.1-22.9c-2.1-12.4-2.8-24.9-3.3-37.3c-0.7-15.7-2.1-31.6,0.8-47.2
	c1.8-9.5,3.5-18.8,1.7-28.4c-0.5-2.6-0.8-5.1-0.9-7.7c-0.4-16.7-1.1-33.5,1-50.2c0.9-7.6,2-15.1,4.6-22.4c1.4-3.9,4.1-4.3,7.7-4.2
	c3.6,0.1,4.9,1.9,5.5,4.9c4.5,22.1,7.4,44.5,10,66.9c1.1,10.2,0.4,20.6,3.3,30.5c3.4,11.7,4.6,23.5,4.6,35.6
	c-0.1,24.4,1.3,48.8-2,73.1c-0.4,3.3-1.2,7.4,2.1,9.5c6.6,4.3,8.5,10.7,9.2,17.9c0.4,3.9,2.5,5.1,6.2,5.1c9.4,0,18.9-0.4,28.3,0.5
	c2,0.2,4.3,0.4,6.5-1.7c-2.8-8.2-7.1-15.9-13.1-22.2c-8.8-9.1-12.1-20.1-13.3-32.2c-2.1-21.4-2.4-42.8-2-64.3c0-1.8,0.1-3.6,0.6-5.3
	c3-12.4,3.7-24.8,3.7-37.6c-0.1-24.3,5.2-48,9.8-71.8c3.4-17.8,10.5-33.7,22.1-47.7c3.9-4.8,7.2-10.1,10.3-15.4
	c17.3-29.2,21.1-61.4,20.4-94.5c-0.5-22.6-4.9-44.8-9.9-66.8c-8.4-36.7-17.2-73.3-27.1-109.7c-2.3-8.6-1.2-15.8,4.5-22.7
	c12.6-15,17.5-32.7,17.4-52.1c0-9-2.8-11.3-11.8-9.3c-10.8,2.4-20.5,7.3-29.6,13.5c-1.7,1.2-3.6,2.3-5.3,3.4
	c5.1-9.7,12.9-16.3,21.9-21.2c23.2-12.7,42.6-29.8,58.9-50.5c11.5-14.5,21.9-29.9,36.4-41.9c4.3-3.6,6.9-8.6,8.4-14.1
	C779.1,132,773.6,114.4,764.7,97.5z"/>
</svg>
