<?xml version="1.0" standalone="no"?>
<!DOCTYPE svg PUBLIC "-//W3C//DTD SVG 20010904//EN"
 "http://www.w3.org/TR/2001/REC-SVG-20010904/DTD/svg10.dtd">
<svg version="1.0" xmlns="http://www.w3.org/2000/svg"
 width="700.000000pt" height="700.000000pt" viewBox="0 0 700.000000 700.000000"
 preserveAspectRatio="xMidYMid meet">
<metadata>
Created by potrace 1.14, written by Peter Selinger 2001-2017
</metadata>
<g transform="translate(0.000000,700.000000) scale(0.100000,-0.100000)"
fill="#000000" stroke="none">
<path d="M4930 6395 c-13 -15 1 -50 64 -160 34 -59 44 -95 28 -95 -5 0 -32 25
-60 56 -45 48 -54 54 -72 44 -39 -21 -22 -69 64 -174 87 -107 111 -166 108
-265 -2 -52 -40 -135 -64 -139 -12 -2 -19 9 -28 50 -6 29 -25 91 -43 138 -28
74 -35 85 -58 88 -45 5 -48 -13 -23 -133 31 -142 32 -214 5 -285 -34 -89 -135
-186 -167 -160 -8 8 -12 21 -8 35 19 77 5 280 -23 323 -13 21 -16 22 -36 9
-20 -13 -22 -24 -24 -108 -1 -52 -4 -116 -7 -144 -13 -119 -60 -205 -112 -205
-78 0 -114 185 -64 328 17 50 19 66 10 77 -33 39 -75 -2 -111 -106 -27 -80
-29 -208 -4 -294 44 -156 42 -201 -8 -218 -52 -17 -72 -3 -97 65 -26 71 -40
94 -120 193 -32 39 -66 88 -78 110 -82 161 -55 355 64 467 153 145 195 188
228 232 73 97 90 155 50 170 -24 9 -49 -9 -90 -66 -51 -72 -133 -157 -167
-175 -72 -37 -75 18 -8 154 50 103 53 133 11 133 -35 0 -86 -81 -158 -253 -14
-34 -33 -31 -46 6 -10 28 5 107 37 192 28 75 -27 90 -74 20 -60 -88 -83 -229
-53 -335 26 -94 37 -168 37 -252 0 -73 -4 -91 -22 -117 -26 -36 -41 -38 -96
-12 -55 25 -104 76 -131 137 -27 61 -35 107 -35 194 0 70 -4 83 -31 93 -45 16
-72 -109 -54 -251 13 -108 98 -232 186 -273 123 -58 171 -84 199 -110 53 -48
33 -64 -55 -48 -72 13 -144 52 -195 104 -58 61 -74 69 -93 49 -9 -8 -14 -24
-13 -34 6 -36 66 -119 109 -150 59 -43 96 -58 220 -85 119 -27 162 -45 179
-76 15 -29 10 -30 -41 -13 -24 8 -71 18 -106 21 -56 5 -63 4 -74 -16 -8 -17
-8 -31 1 -59 19 -59 56 -128 90 -166 39 -45 41 -61 17 -110 -29 -57 -111 -134
-214 -198 -49 -31 -95 -67 -102 -79 -31 -50 -19 -134 24 -170 9 -8 23 -29 31
-47 10 -23 27 -39 56 -52 50 -23 81 -24 169 -6 107 22 202 4 228 -43 14 -28
12 -96 -6 -171 -8 -36 -18 -85 -21 -110 -7 -64 -46 -108 -132 -152 -71 -35
-187 -72 -266 -83 -22 -3 -46 -8 -54 -11 -21 -7 -206 -18 -301 -18 -96 1 -280
11 -379 21 -122 14 -340 8 -426 -11 -106 -24 -216 -67 -300 -117 -84 -51 -110
-72 -207 -171 -99 -101 -139 -178 -140 -269 -2 -115 38 -202 82 -179 10 5 21
7 23 3 5 -7 32 -154 43 -233 3 -19 7 -41 9 -48 16 -46 23 -211 12 -272 -27
-145 -89 -238 -244 -362 -35 -27 -63 -55 -64 -61 0 -7 -2 -79 -4 -162 -1 -82
-5 -161 -8 -175 -4 -14 -9 -56 -12 -95 -3 -38 -12 -113 -20 -165 -8 -52 -17
-117 -20 -145 -8 -58 -50 -281 -65 -340 -16 -68 -12 -95 19 -124 19 -18 35
-47 45 -85 8 -32 17 -61 20 -64 6 -6 256 -11 268 -5 14 7 -12 66 -66 147 -58
88 -73 131 -70 206 2 71 15 223 19 229 2 4 6 38 10 76 4 39 9 73 11 76 2 4 6
24 10 45 14 96 67 294 93 349 34 74 72 113 209 211 176 127 274 217 360 329
25 33 47 62 49 65 2 2 19 -4 38 -14 23 -13 36 -28 41 -50 22 -100 -23 -202
-144 -324 -80 -81 -80 -82 -20 -210 44 -95 162 -441 202 -592 25 -97 50 -218
61 -302 5 -36 13 -53 36 -73 17 -14 34 -25 39 -25 18 0 39 -33 55 -85 11 -38
21 -55 33 -56 118 -5 254 -3 258 3 12 18 -43 106 -101 163 -86 85 -102 110
-152 253 -39 110 -118 358 -128 402 -2 8 -13 55 -24 103 -43 182 -22 258 97
349 191 144 269 221 353 345 58 86 73 92 226 88 90 -1 146 3 255 19 35 5 43
-6 59 -79 7 -33 14 -64 15 -70 1 -5 5 -21 7 -35 3 -14 24 -104 47 -200 23 -96
50 -220 61 -275 11 -55 24 -116 29 -135 5 -19 12 -48 16 -65 14 -57 13 -505
-1 -600 -13 -90 -13 -90 12 -127 14 -21 29 -59 34 -85 5 -25 11 -48 13 -51 3
-2 59 -5 125 -7 86 -2 124 1 131 10 7 9 -8 48 -54 139 -35 69 -67 147 -71 172
-3 25 -8 53 -10 62 -6 31 -18 286 -18 372 0 78 4 126 19 220 4 19 5 62 3 95
-6 132 -4 433 4 485 8 62 25 119 40 138 11 14 63 16 72 2 4 -6 8 -20 11 -33 2
-12 6 -33 9 -47 9 -45 30 -185 40 -265 3 -27 8 -61 10 -75 3 -14 7 -65 10
-115 7 -100 11 -132 26 -189 6 -21 13 -59 17 -85 9 -62 9 -537 0 -629 -7 -69
-6 -74 16 -95 28 -26 56 -79 56 -105 0 -10 6 -26 13 -36 12 -16 31 -19 135
-20 67 -2 127 1 133 5 16 9 -31 102 -77 154 -56 62 -85 130 -98 230 -3 22 -8
137 -11 255 -3 159 -1 229 9 270 7 30 14 109 16 175 3 134 4 143 15 235 8 74
6 62 41 240 41 210 70 277 192 445 70 96 146 269 167 382 27 148 27 484 0 608
-3 11 -7 31 -9 45 -2 14 -16 79 -31 145 -15 66 -29 131 -32 145 -2 14 -40 169
-85 345 -44 176 -82 332 -85 347 -5 33 18 88 57 138 61 77 101 199 102 313 1
75 -11 97 -52 97 -35 0 -152 -47 -220 -89 -28 -17 -48 -25 -43 -18 25 44 85
95 184 157 176 111 260 189 423 394 62 78 138 166 170 196 87 82 101 115 100
230 -1 107 -8 141 -52 235 -26 54 -35 65 -55 65 -36 0 -38 -27 -10 -132 30
-116 28 -198 -6 -246 -27 -39 -57 -40 -53 -2 24 233 6 336 -53 314 -11 -5 -15
-22 -15 -68 0 -55 -11 -86 -30 -86 -4 0 -19 31 -34 70 -28 71 -90 175 -118
198 -24 19 -55 22 -68 7z"/>
</g>
</svg>
